# xmcd
#
# Track frame offsets:
#	150
#	13115
#	35557
#	53922
#	76607
#	99015
#	115347
#	131815
#	150100
#	183862
#	203257
#
# Disc length: 2993 seconds
#
# Revision: 0
# Processed by: cddbd v1.5.1PL0 Copyright (c) Steve Scherf et al.
# Submitted via: EasyCDDAExtractor 8.1.4.1
#
DISCID=740baf0b
DTITLE=nmas - new album
DYEAR=2005
DGENRE=Alternative
TTITLE0=Mississippi Boil Weevils
TTITLE1=no mo
TTITLE2=bang bang lulu
TTITLE3=horseshoe suite
TTITLE4=done got late
TTITLE5=ass
TTITLE6=teasin' brown
TTITLE7=deep blue sea
TTITLE8=died down
TTITLE9=moonshine
TTITLE10=bounce ball
EXTD=
EXTT0=
EXTT1=
EXTT2=
EXTT3=
EXTT4=
EXTT5=
EXTT6=
EXTT7=
EXTT8=
EXTT9=
EXTT10=
PLAYORDER=
